<svg xmlns:dc="http://purl.org/dc/elements/1.1/" xmlns:cc="http://creativecommons.org/ns#" xmlns:rdf="http://www.w3.org/1999/02/22-rdf-syntax-ns#" xmlns:svg="http://www.w3.org/2000/svg" xmlns="http://www.w3.org/2000/svg" xmlns:sodipodi="http://sodipodi.sourceforge.net/DTD/sodipodi-0.dtd" xmlns:inkscape="http://www.inkscape.org/namespaces/inkscape" viewBox="0 0 8.4666665 10.58333375" version="1.1" x="0px" y="0px"><g transform="translate(0,-288.53332)"><path style="" d="m 1.6846334,292.03017 -0.43625,0.48646 -0.71932003,-0.64511 0.27489,-0.3065 0.22801003,0.20449 0.27489,-0.30649 -0.22803,-0.20451 0.27489,-0.30647 0.22801,0.20449 0.27489,-0.3065 -0.22803,-0.20449 0.27489,-0.30651 0.7193,0.64513 -0.43626,0.48644 a 5.8221388,5.8221388 0 0 0 1.9426899,0.71763 0.13230327,0.13230327 0 0 1 0.1969702,0.17669 l -1.5204801,1.69538 a 0.13231397,0.13231397 0 0 1 -0.19699,-0.1767 5.8221388,5.8221388 0 0 0 -0.92407,-1.85343 z" fill="#000000" stroke="none"/><path style="" d="m 6.7648833,295.59592 a 0.13229168,0.13229168 0 0 1 -0.14287,0.2167 l -2.61449,-1.0708 a 0.13229168,0.13229168 0 0 1 0.0502,-0.25471 4.6144167,4.6144167 0 0 0 1.8303698,-1.93369 1.0007606,1.0007606 0 0 1 -0.1755797,-0.86458 l -0.2465501,-0.10089 a 1.2653439,1.2653439 0 0 1 0.10033,-0.24484 l 0.24657,0.10088 a 1.0007606,1.0007606 0 0 1 1.12137,-0.46971 l 0.1959301,-0.4784 -0.3699301,-0.15142 0.10033,-0.24485 0.3699301,0.15143 0.2212498,-0.54017 0.2448402,0.10033 -0.2212502,0.54019 0.4622702,0.18931 -0.10033,0.24484 -0.4622501,-0.18933 -0.19592,0.4784 a 1.0007606,1.0007606 0 0 1 0.4697101,1.12137 l 0.2465599,0.10089 a 1.2653439,1.2653439 0 0 1 -0.10033,0.24484 l -0.2465599,-0.10089 a 1.0007606,1.0007606 0 0 1 -0.7315999,0.49306 4.6144167,4.6144167 0 0 0 -0.0518,2.6621 z" fill="#000000" stroke="none"/><path style="" d="m 3.2345135,290.63187 a 0.13229168,0.13229168 0 0 0 -0.1542101,0.21499 l 0.8944701,0.64156 a 0.13229168,0.13229168 0 0 0 0.15421,-0.21499 z" fill="#000000" stroke="none"/><path style="" d="m 4.6637834,291.00423 -0.27281,-1.06643 a 0.13229273,0.13229273 0 0 0 -0.2563199,0.0656 l 0.2728,1.06643 a 0.13229553,0.13229553 0 0 0 0.2563299,-0.0656 z" fill="#000000" stroke="none"/><path style="" d="m 5.2465033,291.14177 0.4764799,-0.99231 a 0.13229168,0.13229168 0 0 0 -0.2385099,-0.11445 l -0.47648,0.99231 a 0.13229316,0.13229316 0 0 0 0.23851,0.11445 z" fill="#000000" stroke="none"/></g><text x="0" y="23.466667" fill="#000000" font-size="5px" font-weight="bold" font-family="'Helvetica Neue', Helvetica, Arial-Unicode, Arial, Sans-serif">Created by Pham Duy Phuong Hung</text><text x="0" y="28.466667" fill="#000000" font-size="5px" font-weight="bold" font-family="'Helvetica Neue', Helvetica, Arial-Unicode, Arial, Sans-serif">from the Noun Project</text></svg>